<svg data-v-fde0c5aa="" xmlns="http://www.w3.org/2000/svg" viewBox="0 0 300 300" class="font"><!----><defs data-v-fde0c5aa=""><!----></defs><rect data-v-fde0c5aa="" fill="#FBF8F9" x="0" y="0" width="300px" height="300px" class="logo-background-square"></rect><defs data-v-fde0c5aa=""><linearGradient data-v-fde0c5aa="" gradientTransform="rotate(25)" id="9e00416f-62d9-459e-b84c-91cc0d22dc5e" x1="0%" y1="0%" x2="100%" y2="0%"><stop data-v-fde0c5aa="" offset="0%" stop-color="#CEAFEB" stop-opacity="1"></stop><stop data-v-fde0c5aa="" offset="100%" stop-color="#EFDFB4" stop-opacity="1"></stop></linearGradient></defs><g data-v-fde0c5aa="" id="3c23cdb9-8ac2-4abd-a37f-00287508d58b" fill="url(#9e00416f-62d9-459e-b84c-91cc0d22dc5e)" transform="matrix(4.673889981439516,0,0,4.673889981439516,36.02719340434219,126.67728866945758)"><path d="M0.85 10.50L0.85-0.42L4.20-0.42Q7.64-0.42 7.64 2.52L7.64 2.52L7.64 2.80Q7.64 4.26 6.43 4.87L6.43 4.87Q7.92 5.52 7.92 7.15L7.92 7.15L7.92 7.43Q7.92 10.50 4.34 10.50L4.34 10.50L0.85 10.50ZM4.41 5.73L4.41 5.73L2.73 5.73L2.73 8.86L4.41 8.86Q5.10 8.86 5.56 8.51Q6.02 8.16 6.02 7.38L6.02 7.38L6.02 7.22Q6.02 6.44 5.56 6.08Q5.10 5.73 4.41 5.73ZM4.20 1.22L4.20 1.22L2.73 1.22L2.73 4.09L4.20 4.09Q5.74 4.09 5.74 2.74L5.74 2.74L5.74 2.56Q5.74 1.22 4.20 1.22ZM15.86 6.61L15.86 7.46L10.96 7.46Q11.06 9.27 12.63 9.27L12.63 9.27Q13.33 9.27 13.73 8.93Q14.14 8.58 14.14 8.12L14.14 8.12L15.86 8.12L15.86 8.18Q15.86 9.23 15.00 9.95Q14.14 10.68 12.61 10.68L12.61 10.68Q10.89 10.68 10.02 9.66Q9.14 8.64 9.14 6.97L9.14 6.97L9.14 6.61Q9.14 4.94 10.01 3.92Q10.88 2.90 12.54 2.90L12.54 2.90Q14.18 2.90 15.02 3.92Q15.86 4.94 15.86 6.61L15.86 6.61ZM12.50 4.31L12.50 4.31Q11.07 4.31 10.96 6.12L10.96 6.12L14.03 6.12Q13.94 4.31 12.50 4.31ZM19.66 0.98L19.66 3.08L21.71 3.08L21.71 4.68L19.66 4.68L19.66 7.88Q19.66 8.58 19.95 8.83Q20.24 9.09 20.86 9.09L20.86 9.09Q21.38 9.09 21.57 8.99L21.57 8.99L21.57 10.50Q21.21 10.68 20.43 10.68L20.43 10.68Q17.84 10.68 17.84 8.08L17.84 8.08L17.84 4.68L16.70 4.68L16.70 3.08L17.84 3.08L17.84 0.98L19.66 0.98ZM24.60 6.57L24.60 7.01Q24.60 9.09 26.10 9.09L26.10 9.09Q26.75 9.09 27.08 8.73Q27.41 8.37 27.41 7.80L27.41 7.80L29.13 7.80L29.13 8.09Q29.13 9.23 28.34 9.95Q27.55 10.68 26.05 10.68L26.05 10.68Q24.42 10.68 23.60 9.68Q22.78 8.68 22.78 7.01L22.78 7.01L22.78 6.57Q22.78 4.89 23.60 3.89Q24.42 2.90 26.05 2.90L26.05 2.90Q27.57 2.90 28.35 3.65Q29.13 4.41 29.13 5.60L29.13 5.60L29.13 5.91L27.41 5.91Q27.41 5.24 27.08 4.86Q26.75 4.48 26.10 4.48L26.10 4.48Q24.60 4.48 24.60 6.57L24.60 6.57ZM30.44-0.70L32.26-0.70L32.26 3.84Q33.05 2.90 34.50 2.90L34.50 2.90Q35.64 2.90 36.21 3.61Q36.78 4.33 36.78 5.42L36.78 5.42L36.78 10.50L34.97 10.50L34.97 5.71Q34.97 5.15 34.68 4.82Q34.38 4.48 33.80 4.48L33.80 4.48Q32.77 4.48 32.26 5.33L32.26 5.33L32.26 10.50L30.44 10.50L30.44-0.70ZM44.39 10.50L42.78 10.50L42.64 9.65Q41.75 10.68 40.22 10.68L40.22 10.68Q39.10 10.68 38.54 10.07Q37.98 9.45 37.98 8.50L37.98 8.50L37.98 8.36Q37.98 7.24 38.66 6.73Q39.34 6.22 40.57 6.03L40.57 6.03L42.46 5.74L42.46 5.71Q42.46 4.98 42.19 4.65Q41.92 4.31 41.23 4.31L41.23 4.31Q40.00 4.31 40.00 5.53L40.00 5.53L38.26 5.53L38.26 5.40Q38.26 4.33 38.95 3.61Q39.65 2.90 41.27 2.90L41.27 2.90Q42.92 2.90 43.60 3.61Q44.28 4.33 44.28 5.71L44.28 5.71L44.28 8.40L44.39 10.50ZM40.85 9.18L40.85 9.18Q41.89 9.18 42.46 8.41L42.46 8.41L42.46 6.85L40.91 7.10Q39.80 7.28 39.80 8.16L39.80 8.16L39.80 8.27Q39.80 8.65 40.07 8.92Q40.33 9.18 40.85 9.18ZM46.16 7.48L45.65-0.42L47.92-0.42L47.42 7.48L46.16 7.48ZM45.79 8.53L47.78 8.53L47.78 10.50L45.79 10.50L45.79 8.53Z"></path></g><!----><!----></svg>