<svg data-v-fde0c5aa="" xmlns="http://www.w3.org/2000/svg" viewBox="0 0 300 300" class="iconAbove"><!----><defs data-v-fde0c5aa=""><!----></defs><rect data-v-fde0c5aa="" fill="#FBF8F9" x="0" y="0" width="300px" height="300px" class="logo-background-square"></rect><defs data-v-fde0c5aa=""><!----></defs><g data-v-fde0c5aa="" id="65360dd2-515a-45a2-8837-b810daf6899e" fill="#41393D" transform="matrix(5.916813062935661,0,0,5.916813062935661,5.718514222080129,196.80843574018772)"><path d="M0.85 10.50L0.85-0.42L4.20-0.42Q7.64-0.42 7.64 2.52L7.64 2.52L7.64 2.80Q7.64 4.26 6.43 4.87L6.43 4.87Q7.92 5.52 7.92 7.15L7.92 7.15L7.92 7.43Q7.92 10.50 4.34 10.50L4.34 10.50L0.85 10.50ZM4.41 5.73L4.41 5.73L2.73 5.73L2.73 8.86L4.41 8.86Q5.10 8.86 5.56 8.51Q6.02 8.16 6.02 7.38L6.02 7.38L6.02 7.22Q6.02 6.44 5.56 6.08Q5.10 5.73 4.41 5.73ZM4.20 1.22L4.20 1.22L2.73 1.22L2.73 4.09L4.20 4.09Q5.74 4.09 5.74 2.74L5.74 2.74L5.74 2.56Q5.74 1.22 4.20 1.22ZM15.86 6.61L15.86 7.46L10.96 7.46Q11.06 9.27 12.63 9.27L12.63 9.27Q13.33 9.27 13.73 8.93Q14.14 8.58 14.14 8.12L14.14 8.12L15.86 8.12L15.86 8.18Q15.86 9.23 15.00 9.95Q14.14 10.68 12.61 10.68L12.61 10.68Q10.89 10.68 10.02 9.66Q9.14 8.64 9.14 6.97L9.14 6.97L9.14 6.61Q9.14 4.94 10.01 3.92Q10.88 2.90 12.54 2.90L12.54 2.90Q14.18 2.90 15.02 3.92Q15.86 4.94 15.86 6.61L15.86 6.61ZM12.50 4.31L12.50 4.31Q11.07 4.31 10.96 6.12L10.96 6.12L14.03 6.12Q13.94 4.31 12.50 4.31ZM19.66 0.98L19.66 3.08L21.71 3.08L21.71 4.68L19.66 4.68L19.66 7.88Q19.66 8.58 19.95 8.83Q20.24 9.09 20.86 9.09L20.86 9.09Q21.38 9.09 21.57 8.99L21.57 8.99L21.57 10.50Q21.21 10.68 20.43 10.68L20.43 10.68Q17.84 10.68 17.84 8.08L17.84 8.08L17.84 4.68L16.70 4.68L16.70 3.08L17.84 3.08L17.84 0.98L19.66 0.98ZM24.60 6.57L24.60 7.01Q24.60 9.09 26.10 9.09L26.10 9.09Q26.75 9.09 27.08 8.73Q27.41 8.37 27.41 7.80L27.41 7.80L29.13 7.80L29.13 8.09Q29.13 9.23 28.34 9.95Q27.55 10.68 26.05 10.68L26.05 10.68Q24.42 10.68 23.60 9.68Q22.78 8.68 22.78 7.01L22.78 7.01L22.78 6.57Q22.78 4.89 23.60 3.89Q24.42 2.90 26.05 2.90L26.05 2.90Q27.57 2.90 28.35 3.65Q29.13 4.41 29.13 5.60L29.13 5.60L29.13 5.91L27.41 5.91Q27.41 5.24 27.08 4.86Q26.75 4.48 26.10 4.48L26.10 4.48Q24.60 4.48 24.60 6.57L24.60 6.57ZM30.44-0.70L32.26-0.70L32.26 3.84Q33.05 2.90 34.50 2.90L34.50 2.90Q35.64 2.90 36.21 3.61Q36.78 4.33 36.78 5.42L36.78 5.42L36.78 10.50L34.97 10.50L34.97 5.71Q34.97 5.15 34.68 4.82Q34.38 4.48 33.80 4.48L33.80 4.48Q32.77 4.48 32.26 5.33L32.26 5.33L32.26 10.50L30.44 10.50L30.44-0.70ZM44.39 10.50L42.78 10.50L42.64 9.65Q41.75 10.68 40.22 10.68L40.22 10.68Q39.10 10.68 38.54 10.07Q37.98 9.45 37.98 8.50L37.98 8.50L37.98 8.36Q37.98 7.24 38.66 6.73Q39.34 6.22 40.57 6.03L40.57 6.03L42.46 5.74L42.46 5.71Q42.46 4.98 42.19 4.65Q41.92 4.31 41.23 4.31L41.23 4.31Q40.00 4.31 40.00 5.53L40.00 5.53L38.26 5.53L38.26 5.40Q38.26 4.33 38.95 3.61Q39.65 2.90 41.27 2.90L41.27 2.90Q42.92 2.90 43.60 3.61Q44.28 4.33 44.28 5.71L44.28 5.71L44.28 8.40L44.39 10.50ZM40.85 9.18L40.85 9.18Q41.89 9.18 42.46 8.41L42.46 8.41L42.46 6.85L40.91 7.10Q39.80 7.28 39.80 8.16L39.80 8.16L39.80 8.27Q39.80 8.65 40.07 8.92Q40.33 9.18 40.85 9.18ZM46.16 7.48L45.65-0.42L47.92-0.42L47.42 7.48L46.16 7.48ZM45.79 8.53L47.78 8.53L47.78 10.50L45.79 10.50L45.79 8.53Z"></path></g><defs data-v-fde0c5aa=""><linearGradient data-v-fde0c5aa="" gradientTransform="rotate(25)" id="2849bc29-bbca-444a-af57-6d031c05fb46" x1="0%" y1="0%" x2="100%" y2="0%"><stop data-v-fde0c5aa="" offset="0%" stop-color="#CEAFEB" stop-opacity="1"></stop><stop data-v-fde0c5aa="" offset="100%" stop-color="#EFDFB4" stop-opacity="1"></stop></linearGradient></defs><g data-v-fde0c5aa="" id="4d999c99-7ceb-43af-8eae-9bc71c22b0df" stroke="none" fill="url(#2849bc29-bbca-444a-af57-6d031c05fb46)" transform="matrix(2.646960830088496,0,0,2.646960830088496,17.651928203512476,-25.014652635643145)"><path d="M99.859 25.475l-17.184 5.448.148.955-7.432 2.154.812 4.357-9.449-.511-11.467-6.13s-3.842-1.529-12.662-1.374l-1.535 1.887-17.486 1.95.317-2.498-7.546-1.716.094-.962-16.4-4.473v36.621l13.14 1.196.136-1.39 6.896-.201.354-2.796 1.54.058c.569 3.421 4.459 3.065 4.459 3.065s.591-.329 1.25-.774l.665.512-1.581 1.176c-.066 1.234.116 3.255 1.46 4.268 1.574 1.186 4.031 1.012 4.629.378.204-.217.753-.702 1.342-1.318l.725.558-2.119 2.507c1.86 3.947 6.757 2.983 6.757 2.983l.922-1.212.712.549-.701.944c.928 2.465 3.733 2.511 5.033 2.39l.983.757.167.064a8.114 8.114 0 003.166.537c2.346-.084 4.178-1.047 5.043-1.589a7.68 7.68 0 002.121.248c2.152-.059 3.703-1.147 4.625-2.153a7.997 7.997 0 001.025-1.371c2.914-.391 4.689-1.554 5.635-2.846a5.363 5.363 0 00.918-1.997c2.148-.406 3.617-1.679 4.465-2.863.996-1.375 1.301-2.646 1.326-2.739l.148-.614-1.449-1.69 5.67-1.608 1.236 6.631 6.896-.201.217 1.38 12.051-1.903-.072-36.644zM18.336 58.689l-4.494.131 3.6-26.371 4.098.932-3.204 25.308zm53.226 3.079c-.66.747-1.543 1.392-2.941 1.575l-9.303-11.425-1.91 1.555 9.555 11.733a2.803 2.803 0 01-.49 1.052c-.525.696-1.572 1.551-4.07 1.878l-6.531-8.495-1.953 1.5 6.555 8.525c-.186.266-.432.57-.736.853-.639.588-1.463 1.075-2.639 1.112a5.245 5.245 0 01-1.537-.204l-3.377-4.3-1.937 1.521 2.759 3.512c-.773.378-1.877.786-3.074.813a5.617 5.617 0 01-2.048-.313l-.562-.433 2.062-3.772c-.427-4.093-4.288-2.748-4.288-2.748l-2.271 3.058-.693-.532 2.532-3.333c.851-5.978-4.854-4.579-4.854-4.579l-3.136 3.711-.824-.635c.392-.742.555-1.497.189-2.146-1.262-2.234-3.842-2.017-5.205-1.715l-1.219-.938c.207-.971-.987-3.193-3.402-3.524-1.037-.141-1.933.165-2.626.567l-2.682-.099 2.384-18.816 15.585-1.736-.011.01s3.246 7.052 9.17 1.842l8.158 4.155 16.383 19.104a6.164 6.164 0 01-1.013 1.667zm10.985-1.133l-4.678-25.078 4.037-1.169 5.133 26.116-4.492.131z"></path></g><!----></svg>